<svg width="107" height="18" viewBox="0 0 107 18" fill="none" xmlns="http://www.w3.org/2000/svg">
<path d="M19.2307 0.0195312H16.2852V13.481H19.2307V0.0195312Z" fill="#222222"/>
<path d="M28.1668 0.0253906H29.5981V2.97188H28.3639C27.507 2.97188 26.6853 3.31237 26.0794 3.91845C25.4735 4.52453 25.1331 5.34655 25.1331 6.20367V13.4661H22.1875V6.01174C22.1875 4.42496 22.8173 2.90309 23.9385 1.78058C25.0597 0.658076 26.5805 0.0267657 28.1668 0.0253906Z" fill="#222222"/>
<path d="M10.4024 1.27093C9.39817 0.594457 8.22895 0.203953 7.01989 0.141238C5.81083 0.0785235 4.60748 0.34596 3.53872 0.914907C2.46995 1.48385 1.57603 2.33288 0.952668 3.37107C0.32931 4.40926 0 5.59751 0 6.80856C0 8.01961 0.32931 9.20786 0.952668 10.246C1.57603 11.2842 2.46995 12.1333 3.53872 12.7022C4.60748 13.2712 5.81083 13.5386 7.01989 13.4759C8.22895 13.4132 9.39817 13.0227 10.4024 12.3462V13.4874H13.348V0H10.4024V1.27093ZM6.67371 10.4891C5.94753 10.4891 5.23768 10.2737 4.63388 9.87011C4.03009 9.46654 3.5595 8.89294 3.28161 8.22183C3.00371 7.55073 2.931 6.81227 3.07267 6.09983C3.21434 5.38739 3.56402 4.73297 4.0775 4.21933C4.59099 3.70569 5.2452 3.35589 5.95742 3.21418C6.66964 3.07247 7.40788 3.1452 8.07878 3.42318C8.74968 3.70116 9.32312 4.1719 9.72657 4.77588C10.13 5.37986 10.3453 6.08994 10.3453 6.81634C10.3453 7.79041 9.95851 8.72458 9.26995 9.41335C8.58139 10.1021 7.64748 10.4891 6.67371 10.4891Z" fill="#222222"/>
<path d="M91.7893 10.4879V13.481C90.6021 13.4606 89.4705 12.9745 88.6382 12.1274C87.8059 11.2803 87.3397 10.1401 87.3398 8.95236V0.0195312H90.2854V8.62037C90.284 9.05695 90.4327 9.48074 90.7065 9.82074C90.9803 10.1607 91.3626 10.3963 91.7893 10.4879Z" fill="#222222"/>
<path d="M65.563 0.0195312H59.6719V17.3664H62.6175V11.8107H65.563C67.0959 11.7652 68.5508 11.1241 69.6189 10.0234C70.6871 8.92275 71.2846 7.4491 71.2846 5.9151C71.2846 4.38109 70.6871 2.90744 69.6189 1.80677C68.5508 0.706101 67.0959 0.0650194 65.563 0.0195312ZM65.563 8.83824H62.6175V2.96602H65.563C66.3236 2.99793 67.0423 3.32259 67.5692 3.87216C68.096 4.42172 68.3902 5.15368 68.3902 5.9151C68.3902 6.67651 68.096 7.40847 67.5692 7.95804C67.0423 8.5076 66.3236 8.83226 65.563 8.86417V8.83824Z" fill="#222222"/>
<path d="M79.4042 0H73.5078V17.3469H76.4534V11.7911H79.4042C80.937 11.7456 82.3919 11.1046 83.4601 10.0039C84.5283 8.90322 85.1257 7.42957 85.1257 5.89556C85.1257 4.36156 84.5283 2.88791 83.4601 1.78724C82.3919 0.68657 80.937 0.0454882 79.4042 0ZM79.4042 8.81871H76.4534V2.94649H79.4042C80.1647 2.9784 80.8835 3.30306 81.4103 3.85262C81.9371 4.40219 82.2313 5.13415 82.2313 5.89556C82.2313 6.65698 81.9371 7.38894 81.4103 7.9385C80.8835 8.48807 80.1647 8.81273 79.4042 8.84464V8.81871Z" fill="#222222"/>
<path d="M57.6313 0.0195312V7.59324C57.6299 9.15663 57.0081 10.6555 55.9024 11.7605C54.7968 12.8655 53.2978 13.4862 51.7349 13.4862C50.1729 13.4848 48.6752 12.8635 47.5707 11.7587C46.4662 10.6538 45.8451 9.15573 45.8438 7.59324V0.0195312H48.7893V7.59324C48.7907 8.37428 49.1015 9.12293 49.6536 9.67521C50.2057 10.2275 50.9541 10.5384 51.7349 10.5397C52.5166 10.5397 53.2664 10.2295 53.8196 9.67704C54.3728 9.12461 54.6843 8.37517 54.6857 7.59324V0.0195312H57.6313Z" fill="#222222"/>
<path d="M103.303 0.0195312L99.4861 7.66068L95.6641 0.0195312H92.3711L97.837 10.9547L94.9485 16.7284L97.6036 17.9993L106.57 0.0195312H103.303Z" fill="#222222"/>
<path d="M32 4.12801C32 5.21627 32.4322 6.25996 33.2015 7.02948C33.9707 7.79899 35.0141 8.2313 36.102 8.2313H39.6855C39.8369 8.23062 39.9869 8.25993 40.1269 8.31756C40.2668 8.3752 40.394 8.46 40.5011 8.56707C40.6081 8.67415 40.6929 8.80137 40.7505 8.9414C40.8081 9.08144 40.8374 9.23149 40.8368 9.38292C40.8374 9.53459 40.8082 9.6849 40.7506 9.82522C40.6931 9.96554 40.6084 10.0931 40.5014 10.2006C40.3944 10.3081 40.2673 10.3934 40.1273 10.4516C39.9873 10.5098 39.8371 10.5397 39.6855 10.5397H32V13.4862H39.6855C40.7734 13.4862 41.8168 13.0539 42.5861 12.2844C43.3554 11.5149 43.7875 10.4712 43.7875 9.38292C43.7862 8.29556 43.3534 7.2532 42.5842 6.48481C41.8151 5.71641 40.7725 5.28482 39.6855 5.28482H36.102C35.7953 5.28482 35.5012 5.16294 35.2843 4.946C35.0674 4.72905 34.9456 4.43481 34.9456 4.12801C34.9449 3.97566 34.9743 3.82468 35.0321 3.68373C35.0899 3.54278 35.175 3.41464 35.2825 3.30667C35.3899 3.1987 35.5176 3.11303 35.6583 3.05457C35.7989 2.99611 35.9497 2.96601 36.102 2.96602H43.7875V0.0195312H36.102C35.0136 0.0209059 33.9703 0.45437 33.2011 1.22471C32.432 1.99505 32 3.03927 32 4.12801Z" fill="#222222"/>
</svg>
