<svg xmlns="http://www.w3.org/2000/svg" xml:space="preserve" width="482.97919" height="122.99999" viewBox="0 0 482.97919 122.99999"><path d="M193.238 492.033c-10.455-10.445-27.563-10.445-38.02 0l-19.317 19.298c-10.457 10.445-10.457 27.54 0 37.985l19.317 19.3c10.457 10.445 27.565 10.445 38.02 0l19.317-19.3c10.455-10.445 10.455-27.54 0-37.985z" style="fill:#ed1c24;fill-opacity:1;fill-rule:nonzero;stroke:none;stroke-width:1.93713" transform="matrix(1.33333 0 0 -1.33333 -170.745 768.6)"/><path d="M162.772 501.976a2.846 2.846 0 0 0-2.852 2.734 2.839 2.839 0 0 0 .752 2.051c.517.562 1.22.89 1.984.92a2.854 2.854 0 1 0 .236-5.703c-.039-.002-.08-.002-.12-.002M173.165 554.654c-1.567 0-2.823-.49-3.838-1.497-2.19-2.176-3.341-6.664-3.237-12.64.123-7.369 1.88-21.822 7.68-29.266.939-1.205 1.95-2.168 3.004-2.861 1.023-.676 2.167-1.335 3.957-1.335.485 0 1.006.05 1.55.147 3.326.798 7.493 4.496 10.59 9.419a2.563 2.563 0 0 0 4.667-.794 2.53 2.53 0 0 0-.33-1.932c-3.918-6.224-9.09-10.596-13.836-11.692-.018-.008-.068-.018-.119-.028a14.251 14.251 0 0 0-2.541-.24c-3.063 0-5.223 1.164-6.76 2.18-1.521 1.007-2.943 2.347-4.224 3.99-8.167 10.476-8.724 30.118-8.761 32.323-.09 5.226.664 12.308 4.75 16.36 1.995 1.979 4.494 2.98 7.427 2.98h.476c2.94 0 5.443-1.001 7.437-2.98 4.085-4.052 4.839-11.134 4.752-16.36-.093-5.445-1.093-15.995-6.746-25.45a2.577 2.577 0 0 0-2.202-1.248 2.564 2.564 0 0 0-2.197 3.872c3.956 6.618 5.868 13.9 6.019 22.915.103 5.976-1.048 10.466-3.239 12.64-1.013 1.007-2.266 1.497-3.83 1.497z" style="fill:#fff;fill-opacity:1;fill-rule:nonzero;stroke:none;stroke-width:1.93713" transform="matrix(1.33333 0 0 -1.33333 -170.745 768.6)"/><path d="M264.13 520.15a22.116 22.116 0 0 1 4.098-3.385c1.474-.944 2.927-1.697 4.36-2.257 1.432-.56 2.56-.899 3.388-1.017l-1.639-2.477c-.825.089-1.904.31-3.23.662-1.33.355-2.732.856-4.208 1.505a32.448 32.448 0 0 0-4.452 2.41 20.132 20.132 0 0 0-4.006 3.386 20.462 20.462 0 0 0-3.986-3.386 31.353 31.353 0 0 0-4.429-2.41c-1.476-.649-2.878-1.15-4.205-1.505-1.33-.353-2.422-.573-3.278-.662l-1.639 2.477c.828.118 1.957.457 3.388 1.017 1.432.56 2.887 1.321 4.363 2.278a23.548 23.548 0 0 1 4.095 3.384c1.255 1.298 2.117 2.743 2.592 4.338h6.199c.47-1.595 1.334-3.048 2.59-4.359m13.794 9.8v-2.832H239v2.832h16.563v3.892h-9.167c-.796 0-1.491.27-2.08.82-.593.543-.888 1.245-.888 2.099v6.77h23.736v3.936h-23.736v2.833h29.36v-9.645H249.14v-2.699c0-.442.081-.751.244-.93.163-.176.45-.265.862-.265h23.073v-2.92h-12.002v-3.891zM312.862 550.962h5.623v-39.55h-5.623zm-13.992-24.995c1.12 0 2.014.029 2.679.089a3.104 3.104 0 0 1 1.747.707v8.802h-8.103v2.921h8.103v12.476h5.625v-39.55h-5.625v12.298c-.413-.236-.972-.413-1.681-.53-.71-.119-1.626-.177-2.745-.177h-11.557c-1.153 0-2.077.368-2.77 1.106-.694.736-1.04 1.621-1.04 2.654v22.65h16.118v-2.965h-10.45v-19.02c0-.444.096-.799.288-1.064.192-.265.554-.397 1.085-.397zM360.375 550.962V528h-5.802v10.75h-8.147v2.965h8.147v9.246zm-12.797-26.19c-.858 0-1.61-.17-2.258-.508a4.812 4.812 0 0 1-1.616-1.35 6.035 6.035 0 0 1-.974-1.926 7.53 7.53 0 0 1-.333-2.231c0-.798.11-1.558.333-2.28.22-.723.544-1.364.974-1.924a4.557 4.557 0 0 1 1.616-1.327c.649-.325 1.4-.486 2.258-.486.886 0 1.653.16 2.304.486a4.608 4.608 0 0 1 1.615 1.327c.426.56.744 1.201.951 1.924.206.722.31 1.482.31 2.28 0 .794-.11 1.553-.333 2.276a6.11 6.11 0 0 1-.972 1.925 4.595 4.595 0 0 1-1.616 1.327c-.65.324-1.404.487-2.259.487m0 2.963c1.564 0 3.018-.213 4.36-.64 1.343-.429 2.51-1.04 3.5-1.837a8.655 8.655 0 0 0 2.324-2.854c.56-1.106.84-2.32.84-3.647 0-1.358-.28-2.59-.84-3.696a8.655 8.655 0 0 0-2.325-2.854c-.99-.796-2.156-1.406-3.498-1.836-1.343-.426-2.797-.641-4.36-.641-1.568 0-3.02.215-4.363.641-1.344.43-2.509 1.04-3.498 1.836a8.631 8.631 0 0 0-2.325 2.854c-.56 1.106-.84 2.338-.84 3.696 0 1.327.28 2.541.84 3.647a8.631 8.631 0 0 0 2.325 2.854c.99.798 2.154 1.408 3.498 1.836 1.342.428 2.795.641 4.362.641m-22.275 21.768h23.47v-2.877h-8.856v-.222c0-1.77.265-3.37.798-4.799a15.009 15.009 0 0 1 2.147-3.917 15.83 15.83 0 0 1 3.165-3.116c1.21-.901 2.495-1.703 3.855-2.412l-1.951-2.344c-.738.234-1.579.566-2.522.996-.945.426-1.922.972-2.923 1.635a24.63 24.63 0 0 0-2.945 2.3c-.96.87-1.823 1.866-2.592 2.986a20.076 20.076 0 0 0-2.59-3.074 25.709 25.709 0 0 0-2.923-2.455 21.123 21.123 0 0 0-2.923-1.77c-.959-.473-1.82-.825-2.59-1.062l-1.904 2.302a19.154 19.154 0 0 1 3.632 2.278c1.18.93 2.228 2.012 3.142 3.25a16.614 16.614 0 0 1 2.216 4.138c.562 1.519.843 3.163.843 4.932v.354h-8.549zM378.176 533.399c0-.68.34-1.017 1.017-1.017h16.696v7.609h-17.713zm0 16.413v-6.902h17.713v6.902h5.622v-20.351h-11.202v-7.476h16.473v-2.919h-38.967v2.92h16.605v7.475h-8.37c-1.182 0-2.073.325-2.68.974-.604.649-.906 1.519-.906 2.61v16.767zM429.895 523.357a6.053 6.053 0 0 1-2.28-.42 5.776 5.776 0 0 1-1.815-1.151 5.227 5.227 0 0 1-1.218-1.748 5.464 5.464 0 0 1-.444-2.212 5.47 5.47 0 0 1 1.64-3.96c.5-.486 1.107-.87 1.816-1.15a6.215 6.215 0 0 1 2.301-.419c.825 0 1.594.14 2.303.419.71.28 1.314.664 1.816 1.15.501.489.9 1.07 1.197 1.748.294.68.441 1.416.441 2.212 0 .796-.147 1.534-.441 2.212a5.283 5.283 0 0 1-1.219 1.748 5.807 5.807 0 0 1-1.817 1.15 6.06 6.06 0 0 1-2.28.42m0 2.61c1.418 0 2.813-.155 4.184-.465 1.374-.308 2.598-.794 3.677-1.459a7.931 7.931 0 0 0 2.59-2.543c.649-1.035.974-2.257.974-3.673s-.333-2.638-.995-3.67a8.188 8.188 0 0 0-2.592-2.544c-1.062-.665-2.28-1.15-3.654-1.46a18.922 18.922 0 0 0-4.184-.466c-1.416 0-2.81.163-4.184.486-1.373.326-2.59.82-3.653 1.482a8.324 8.324 0 0 0-2.59 2.522c-.665 1.017-.996 2.234-.996 3.65s.325 2.638.972 3.673a7.931 7.931 0 0 0 2.59 2.543c1.08.665 2.304 1.15 3.677 1.459 1.373.31 2.768.465 4.184.465m14.525 24.332v-2.832h-23.337v-3.405h23.337v-2.877h-23.337v-2.168c0-.441.113-.796.333-1.061.221-.266.582-.397 1.085-.397h22.539v-2.832h-12.133v-3.627h16.826v-2.832h-38.922v2.832h16.117v3.627h-8.679c-.885 0-1.579.265-2.08.796-.504.53-.754 1.195-.754 1.991v12.785zM489.233 523.003h-5.846v27.959h5.846zm-22.364-7.212c0-.383.058-.722.178-1.017.117-.294.547-.444 1.285-.444h21.961v-2.919H464.08c-.738 0-1.306.118-1.705.355-.397.236-.686.53-.864.885a3.06 3.06 0 0 0-.31 1.172c-.029.428-.042.833-.042 1.216v9.556h5.71zm2.127 29.154c0-1.77.264-3.37.796-4.8a14.71 14.71 0 0 1 2.17-3.915 16.426 16.426 0 0 1 3.187-3.119c1.21-.9 2.495-1.703 3.854-2.41l-1.948-2.346a23.71 23.71 0 0 0-2.524.996c-.946.426-1.912.972-2.902 1.637-.99.662-1.965 1.43-2.923 2.3a16.86 16.86 0 0 0-2.588 2.986 20.104 20.104 0 0 0-2.592-3.074 24.765 24.765 0 0 0-2.945-2.456 21.898 21.898 0 0 0-2.944-1.769c-.959-.472-1.825-.827-2.592-1.061l-1.902 2.301a19.13 19.13 0 0 1 3.63 2.276c1.18.93 2.228 2.013 3.144 3.253a16.63 16.63 0 0 1 2.216 4.135c.56 1.519.839 3.164.839 4.934v5.132h6.024z" style="fill:#ed1c24;fill-opacity:1;fill-rule:nonzero;stroke:none;stroke-width:1.93713" transform="matrix(1.33333 0 0 -1.33333 -170.745 768.6)"/></svg>