<svg id="Layer_1" data-name="Layer 1" xmlns="http://www.w3.org/2000/svg" viewBox="0 0 305.3396 68.5379"><defs><style>.cls-1{fill:#fff;}.cls-2{fill:none;}.cls-3{fill:#30c4f3;}.cls-4{fill:#eb008b;}</style></defs><rect class="cls-1" x="120.2595" y="12.5743" width="12.1829" height="45.1983"/><polygon class="cls-1" points="219.388 12.574 180.937 12.574 180.937 21.944 194.037 21.944 194.038 57.773 206.35 57.773 206.35 21.944 219.388 21.944 219.388 12.574"/><path class="cls-2" d="M51.2056,15.5813a3.5311,3.5311,0,0,0,4.8557-1.55,3.533,3.533,0,0,0-4.8557,1.55Z"/><path class="cls-3" d="M51.2056,15.5813a3.533,3.533,0,0,1,4.8557-1.55,3.5315,3.5315,0,1,0-4.8557,1.55Z"/><path class="cls-4" d="M64.2507,11.6263a4.5716,4.5716,0,0,0-1.4776-3.16v18.563a4.5828,4.5828,0,0,1-1.1743,3.0638l-.1675.1776L31.6571,60.0429a4.58,4.58,0,0,1-6.3061.1624l-.1712-.1624L5.6092,40.4726a4.5758,4.5758,0,0,0,1.1969,4.3763L26.6624,64.7041l.1708.1624a4.5788,4.5788,0,0,0,6.3065-.1624L62.9135,34.9325l.1679-.1777a4.5846,4.5846,0,0,0,1.1739-3.0637V11.8366Z"/><path class="cls-4" d="M52.8924,16.0091a3.5215,3.5215,0,0,1-1.6868-.4278,3.5312,3.5312,0,1,0,4.8557-1.55A3.5308,3.5308,0,0,1,52.8924,16.0091Z"/><path class="cls-3" d="M6.8061,38.3712,36.58,8.5967a4.5824,4.5824,0,0,1,2.9971-1.3343l.2425-.0072H59.6746a4.5638,4.5638,0,0,1,3.0985,1.2109V7.1754l-.0046-.211a4.5815,4.5815,0,0,0-4.5764-4.3712H38.3369l-.2422.008a4.5753,4.5753,0,0,0-2.9971,1.3342L5.3239,33.71l-.1621.17a4.5813,4.5813,0,0,0,.1621,6.3066l.2853.2857a4.5532,4.5532,0,0,1,1.0348-1.93Z"/><polygon class="cls-1" points="76.604 21.944 89.705 21.944 89.705 57.773 102.018 57.773 102.018 21.944 115.054 21.944 115.054 12.574 76.604 12.574 76.604 21.944"/><path class="cls-1" d="M248.47,15.46a4.0436,4.0436,0,0,0-1.444-2.03,4.23,4.23,0,0,0-2.2812-.8423l-.3722-.0133H233.04l-.369.0133a4.268,4.268,0,0,0-2.2834.8379,4.0554,4.0554,0,0,0-1.4407,2.0349l-.0986.3236-12.38,41.9886h12.5762l2.7313-10.7443h13.8608l2.731,10.7443h12.5765L248.5649,15.7885ZM234.0235,38.1881l2.9482-11.5955.1286-.5674c.0863-.3858.1674-.78.2462-1.1948l.1174-.63.1086-.6273c.0674-.4123.1274-.8091.1808-1.197l.07-.5631H239.59c.133.74.2638,1.5384.396,2.3874.0961.6406.2092,1.248.3311,1.8244l.1265.5674L243.39,38.1881Z"/><path class="cls-1" d="M288.9908,47.0017l-.2427.0887-.4444.1662-.469.1641a14.3177,14.3177,0,0,1-2.0847.4921,19.7177,19.7177,0,0,1-3.1133.2305,6.3671,6.3671,0,0,1-3.9934-1.115,6.5572,6.5572,0,0,1-2.065-3.93,38.49,38.49,0,0,1-.6217-7.86,44.968,44.968,0,0,1,.3936-6.5835,10.8579,10.8579,0,0,1,1.2777-4.0256,4.4622,4.4622,0,0,1,2.4218-1.9662,12.0651,12.0651,0,0,1,3.8315-.5253q2.8182,0,5.1108.0332l4.5155.0643c.9939.0177,2.0026.0355,3.0312.06l1.5562.04.9165-8.9045-.8922-.2527a36.1446,36.1446,0,0,0-3.5933-.767q-2.2629-.3591-4.8469-.5541-2.5864-.1929-5.9284-.1951-7.5978,0-12.1508,2.2256a13.114,13.114,0,0,0-6.5483,7.3682q-1.998,5.14-1.9993,13.9186a48.905,48.905,0,0,0,1.5395,13.56,13.7952,13.7952,0,0,0,4.849,7.5656,14.03,14.03,0,0,0,8.4145,2.3918,16.4506,16.4506,0,0,0,6.3542-1.1482,17.1853,17.1853,0,0,0,4.6184-2.7532,20.0233,20.0233,0,0,0,1.76-1.6891l.04-.0487,1.1126,4.7215h9.04V31.7686h-11.79Z"/><path class="cls-1" d="M168.3862,38.19a9.7208,9.7208,0,0,0-1.71-2.07,14.2521,14.2521,0,0,0-1.893-1.5029l-.2695-.1619v-.1973l.37-.2261a10.311,10.311,0,0,0,1.53-1.25,10.785,10.785,0,0,0,1.4456-1.7467l.3222-.5143L179.187,12.5743H166.021L155.6834,30.197h-3.2662l.1429-.7537.1242-.7847a27.944,27.944,0,0,0,.2848-3.0834l.0177-.9466V12.5743H140.7373V57.7726h12.2495V42.6415l-.0134-.5542a19,19,0,0,0-.3734-3.0147l-.1375-.6561-.01-.0311H155.7l10.5823,19.3872h13.6239l-11.2652-19.13Z"/></svg>