<svg xmlns="http://www.w3.org/2000/svg" xml:space="preserve" width="786.77637" height="209.61172" viewBox="0 0 786.77634 209.61173"><defs><radialGradient id="a" cx="0" cy="0" r="1" fx="-0.043924" fy="-0.00046592401" gradientTransform="matrix(-59.36342 -81.8173 -144.57292 104.89642 232.912 280.13)" gradientUnits="userSpaceOnUse" spreadMethod="pad"><stop offset="0" style="stop-opacity:1;stop-color:#ee3451"/><stop offset="0.0370039" style="stop-opacity:1;stop-color:#ee3451"/><stop offset="0.101904" style="stop-opacity:1;stop-color:#67c330"/><stop offset="0.510673" style="stop-opacity:1;stop-color:#67c330"/><stop offset="1" style="stop-opacity:1;stop-color:#387dc8"/></radialGradient><radialGradient id="b" cx="0" cy="0" r="1" fx="0" fy="0" gradientTransform="matrix(82.07737 -56.63819 -102.61377 -148.703 262.473 291.976)" gradientUnits="userSpaceOnUse" spreadMethod="pad"><stop offset="0" style="stop-opacity:1;stop-color:#ee3451"/><stop offset="0.0621888" style="stop-opacity:1;stop-color:#ee3451"/><stop offset="0.166956" style="stop-opacity:1;stop-color:#67c330"/><stop offset="0.510673" style="stop-opacity:1;stop-color:#67c330"/><stop offset="1" style="stop-opacity:1;stop-color:#387dc8"/></radialGradient><radialGradient id="c" cx="0" cy="0" r="1" fx="0" fy="0" gradientTransform="matrix(25.62009 46.11515 89.32565 -49.62644 266.643 317.053)" gradientUnits="userSpaceOnUse" spreadMethod="pad"><stop offset="0" style="stop-opacity:1;stop-color:#ee3451"/><stop offset="0.0506863" style="stop-opacity:1;stop-color:#ee3451"/><stop offset="0.165946" style="stop-opacity:1;stop-color:#67c330"/><stop offset="0.510673" style="stop-opacity:1;stop-color:#67c330"/><stop offset="0.912775" style="stop-opacity:1;stop-color:#387dc8"/><stop offset="1" style="stop-opacity:1;stop-color:#316abc"/></radialGradient><radialGradient id="d" cx="0" cy="0" r="1" fx="0" fy="0" gradientTransform="matrix(-8.99856 24.21672 69.87467 25.96436 246.158 321.137)" gradientUnits="userSpaceOnUse" spreadMethod="pad"><stop offset="0" style="stop-opacity:1;stop-color:#ee3451"/><stop offset="0.0330625" style="stop-opacity:1;stop-color:#ee3451"/><stop offset="0.209703" style="stop-opacity:1;stop-color:#67c330"/><stop offset="0.510673" style="stop-opacity:1;stop-color:#67c330"/><stop offset="0.912775" style="stop-opacity:1;stop-color:#387dc8"/><stop offset="1" style="stop-opacity:1;stop-color:#316abc"/></radialGradient><radialGradient id="e" cx="0" cy="0" r="1" fx="0" fy="0" gradientTransform="matrix(-35.75041 12.21983 27.49044 80.42622 227.738 305.805)" gradientUnits="userSpaceOnUse" spreadMethod="pad"><stop offset="0" style="stop-opacity:1;stop-color:#ee3451"/><stop offset="0.0330625" style="stop-opacity:1;stop-color:#ee3451"/><stop offset="0.18751" style="stop-opacity:1;stop-color:#67c330"/><stop offset="0.510673" style="stop-opacity:1;stop-color:#67c330"/><stop offset="0.912775" style="stop-opacity:1;stop-color:#387dc8"/><stop offset="1" style="stop-opacity:1;stop-color:#316abc"/></radialGradient></defs><path d="M377.09 214.458h1.312c1.064 0 1.71.509 1.71 1.62 0 1.203-.63 1.573-1.71 1.573h-1.312zm-2.483 5.291h4.473c1.898 0 3.47-1.08 3.47-3.594 0-2.576-1.572-3.795-3.47-3.795h-1.99v-5.199h-2.483zM386.25 214.782c.37.833 1.388 1.512 2.56 1.512v-2.175c-1.635-.046-2.484-.895-2.484-2.376v-4.582h-2.483v8.948h2.406zM394.454 212.684c0 1.08-.277 1.666-1.234 1.666-.94 0-1.219-.586-1.219-1.666zm-2.483-1.82v-.463c0-.942.231-1.48 1.264-1.48.926 0 1.22.538 1.22 1.063h2.328c0-1.913-1.48-3.008-3.532-3.008-2.237 0-3.656 1.172-3.656 3.594v1.975c0 2.391 1.326 3.75 3.594 3.75s3.625-1.359 3.625-3.75v-1.682zM401.408 206.976c-2.206 0-3.425 1.188-3.379 3.054h2.345c0-.802.386-1.11 1.064-1.11.68 0 1.003.277 1.003.725 0 .68-.71.864-1.774 1.311-1.172.494-2.484 1.22-2.484 2.73 0 1.512 1.05 2.608 3.24 2.608 2.36 0 3.224-1.45 3.178-2.978h-2.16c0 .85-.417 1.126-1.018 1.126-.586 0-.925-.246-.925-.725 0-.447.293-.756 1.48-1.234 1.327-.57 2.808-1.095 2.808-2.962 0-1.465-1.172-2.545-3.378-2.545M406.542 216.108h2.499v-8.947h-2.499zm-.17 3.95h2.823v-2.453h-2.823zM414.484 209.043c.956 0 1.172.664 1.172 2.607 0 1.944-.216 2.607-1.172 2.607-.957 0-1.173-.663-1.173-2.607 0-1.943.216-2.607 1.173-2.607m1.25-1.882v1.065c-.232-.633-.91-1.25-1.96-1.25-2.422 0-2.962 1.682-2.962 4.196v1.08c0 2.515.88 4.042 3.024 4.042.878 0 1.635-.54 1.82-1.096v4.86h2.406v-12.897zM424.54 212.684c0 1.08-.278 1.666-1.235 1.666-.94 0-1.219-.586-1.219-1.666zm-2.484-1.82v-.463c0-.942.231-1.48 1.264-1.48.926 0 1.22.538 1.22 1.063h2.328c0-1.913-1.48-3.008-3.532-3.008-2.237 0-3.656 1.172-3.656 3.594v1.975c0 2.391 1.326 3.75 3.594 3.75s3.625-1.359 3.625-3.75v-1.682zM430.83 212.668v-5.507h-2.392v8.947h2.314v-1.033a2.09 2.09 0 0 0 1.944 1.219c1.99 0 2.746-1.158 2.746-2.747v-6.386h-2.39v5.507c0 .972-.202 1.666-1.112 1.666-.91 0-1.11-.694-1.11-1.666M436.61 214.088v2.02h1.126v1.82l2.515.68v-2.5h1.65v-2.02h-1.65v-4.104c0-.755.077-1.002.71-1.002.293 0 .616.015.878.046v-1.79a21.511 21.511 0 0 0-1.928-.077c-1.48 0-2.175.88-2.175 1.99v4.937zM443.689 216.108h2.499v-8.947h-2.499zm-.17 3.95h2.823v-2.453h-2.823zM452.649 211.095a9.34 9.34 0 0 1-1.357-.185c-.618-.14-.942-.54-.942-1.126 0-.648.432-.941.956-.941 1.018 0 1.342.71 1.342 1.666zm0-3.008c-.354-.694-1.095-1.111-2.082-1.111-1.56 0-2.67 1.018-2.67 2.607 0 2.669 2.114 2.93 3.857 3.147l.895.077v.803c0 .478-.401.818-1.033.818-.65 0-1.034-.31-1.05-.911h-2.422c0 1.636 1.08 2.777 3.456 2.777 2.299 0 3.425-1.033 3.425-2.947v-6.186h-2.376zM457.027 220.058h2.499v-12.896h-2.499zM474.161 210.987c.016-2.438-1.095-4.011-4.01-4.011-3.672 0-4.18 2.53-4.18 6.479 0 3.949.508 6.48 4.18 6.48 2.854 0 3.995-1.497 3.995-3.857h-2.468c0 1.28-.525 1.805-1.528 1.805-1.403 0-1.68-.972-1.68-4.428 0-3.455.277-4.427 1.68-4.427 1.05 0 1.56.57 1.543 1.959zM478.878 214.35c-1.033 0-1.187-.648-1.187-2.715 0-2.067.154-2.715 1.187-2.715 1.034 0 1.188.648 1.188 2.715 0 2.067-.154 2.715-1.188 2.715m3.518-3.672c0-2.53-1.312-3.702-3.518-3.702-2.252 0-3.548 1.172-3.548 3.702v1.913c0 2.53 1.296 3.703 3.548 3.703 2.206 0 3.518-1.173 3.518-3.703zM486.264 207.161h-2.33v8.947h2.284v-.879a1.79 1.79 0 0 0 1.65 1.065c1.11 0 1.635-.617 1.852-1.327.386.864 1.156 1.327 2.314 1.327 1.774 0 2.93-.864 2.93-2.978v-6.155h-2.33v5.708c0 .71-.138 1.435-1.032 1.435-.864 0-1.02-.726-1.02-1.45v-5.693H488.3v5.723c0 .741-.17 1.42-1.033 1.42-.802 0-1.003-.679-1.003-1.435zM499.14 207.161h-2.33v8.947h2.284v-.879a1.79 1.79 0 0 0 1.65 1.065c1.11 0 1.635-.617 1.852-1.327.386.864 1.156 1.327 2.314 1.327 1.774 0 2.93-.864 2.93-2.978v-6.155h-2.33v5.708c0 .71-.138 1.435-1.032 1.435-.864 0-1.02-.726-1.02-1.45v-5.693h-2.282v5.723c0 .741-.17 1.42-1.033 1.42-.803 0-1.003-.679-1.003-1.435zM509.934 216.108h2.499v-8.947h-2.499zm-.17 3.95h2.823v-2.453h-2.823zM513.834 214.088v2.02h1.126v1.82l2.515.68v-2.5h1.65v-2.02h-1.65v-4.104c0-.755.077-1.002.709-1.002.294 0 .617.015.879.046v-1.79a21.511 21.511 0 0 0-1.928-.077c-1.481 0-2.175.88-2.175 1.99v4.937zM519.986 214.088v2.02h1.126v1.82l2.515.68v-2.5h1.65v-2.02h-1.65v-4.104c0-.755.077-1.002.71-1.002.293 0 .616.015.878.046v-1.79a21.511 21.511 0 0 0-1.928-.077c-1.48 0-2.175.88-2.175 1.99v4.937zM531.292 212.684c0 1.08-.277 1.666-1.234 1.666-.941 0-1.219-.586-1.219-1.666zm-2.483-1.82v-.463c0-.942.231-1.48 1.264-1.48.926 0 1.219.538 1.219 1.063h2.329c0-1.913-1.48-3.008-3.532-3.008-2.237 0-3.656 1.172-3.656 3.594v1.975c0 2.391 1.326 3.75 3.594 3.75s3.625-1.359 3.625-3.75v-1.682zM539.742 212.684c0 1.08-.277 1.666-1.234 1.666-.94 0-1.219-.586-1.219-1.666zm-2.483-1.82v-.463c0-.942.231-1.48 1.264-1.48.926 0 1.22.538 1.22 1.063h2.328c0-1.913-1.48-3.008-3.532-3.008-2.237 0-3.656 1.172-3.656 3.594v1.975c0 2.391 1.326 3.75 3.594 3.75s3.625-1.359 3.625-3.75v-1.682zM375.038 197.275h-1.265v2.02h1.265v1.574c0 1.142.494 2.376 2.53 2.376.617 0 1.126-.031 1.558-.108v-1.682h-.632c-.726 0-.94-.37-.94-.972v-1.187h1.556v-2.021h-1.557v-6.927h-2.515zM383.69 197.537c-1.033 0-1.187-.648-1.187-2.715 0-2.067.154-2.715 1.187-2.715 1.034 0 1.188.648 1.188 2.715 0 2.067-.154 2.715-1.188 2.715m3.518-3.672c0-2.53-1.313-3.702-3.519-3.702-2.252 0-3.548 1.172-3.548 3.702v1.913c0 2.53 1.296 3.702 3.548 3.702 2.206 0 3.518-1.172 3.518-3.702zM391.152 197.969c.37.833 1.39 1.512 2.561 1.512v-2.175c-1.635-.046-2.484-.895-2.484-2.376v-4.582h-2.483v8.948h2.406zM402.672 192.37c1.944 0 2.669.647 2.669 4.272s-.725 4.273-2.67 4.273h-.71v-8.546zm-3.162-2.022v12.588h3.67c3.257 0 4.644-1.65 4.644-6.294 0-4.643-1.387-6.294-4.643-6.294zM414.191 195.871c0 1.08-.277 1.666-1.234 1.666-.94 0-1.219-.586-1.219-1.666zm-2.483-1.82v-.463c0-.942.231-1.48 1.264-1.48.926 0 1.22.538 1.22 1.063h2.328c0-1.913-1.48-3.008-3.532-3.008-2.237 0-3.656 1.172-3.656 3.594v1.975c0 2.391 1.326 3.748 3.594 3.748s3.625-1.357 3.625-3.748v-1.68zM421.392 199.48c2.268 0 3.44-1.264 3.44-2.976h-2.453c0 .602-.216 1.034-.971 1.034-.956 0-1.172-.557-1.172-2.717 0-2.159.216-2.715 1.172-2.715.755 0 .97.478.97 1.126h2.454c0-1.758-1.172-3.069-3.44-3.069-2.622 0-3.61 1.42-3.61 4.658 0 3.24.988 4.66 3.61 4.66M430.846 195.871c0 1.08-.277 1.666-1.234 1.666-.941 0-1.22-.586-1.22-1.666zm-2.483-1.82v-.463c0-.942.23-1.48 1.264-1.48.926 0 1.219.538 1.219 1.063h2.329c0-1.913-1.48-3.008-3.532-3.008-2.237 0-3.656 1.172-3.656 3.594v1.975c0 2.391 1.326 3.748 3.594 3.748s3.625-1.357 3.625-3.748v-1.68zM437.136 195.856v-5.507h-2.391v8.947h2.314v-1.033a2.09 2.09 0 0 0 1.944 1.218c1.99 0 2.746-1.157 2.746-2.746v-6.387h-2.391v5.507c0 .973-.201 1.667-1.111 1.667-.91 0-1.111-.694-1.111-1.666M442.917 197.275v2.02h1.126v1.82l2.515.68v-2.5h1.65v-2.02h-1.65v-4.104c0-.755.077-1.002.709-1.002.294 0 .617.015.879.046v-1.79a21.511 21.511 0 0 0-1.928-.077c-1.481 0-2.175.88-2.175 1.99v4.937zM452.154 197.969c.37.833 1.39 1.512 2.561 1.512v-2.175c-1.635-.046-2.484-.895-2.484-2.376v-4.582h-2.483v8.948h2.406zM460.19 194.282a9.34 9.34 0 0 1-1.357-.185c-.619-.14-.943-.54-.943-1.126 0-.648.433-.941.957-.941 1.018 0 1.342.71 1.342 1.666zm0-3.008c-.354-.694-1.095-1.111-2.082-1.111-1.56 0-2.67 1.018-2.67 2.607 0 2.669 2.114 2.93 3.857 3.147l.895.077v.803c0 .478-.401.818-1.033.818-.65 0-1.034-.31-1.05-.911h-2.423c0 1.636 1.08 2.777 3.456 2.777 2.3 0 3.426-1.033 3.426-2.947v-6.186h-2.376zM464.567 203.245h2.499v-12.896h-2.499zM469.317 199.295h2.499v-8.947h-2.499zm-.17 3.95h2.823v-2.453h-2.823zM473.557 192.06l3.286 5.23h-3.132v2.006h5.847v-1.866l-3.208-5.077h3.316v-2.005h-6.11zM485.478 194.282a9.34 9.34 0 0 1-1.357-.185c-.618-.14-.942-.54-.942-1.126 0-.648.433-.941.957-.941 1.018 0 1.342.71 1.342 1.666zm0-3.008c-.354-.694-1.095-1.111-2.082-1.111-1.559 0-2.669 1.018-2.669 2.607 0 2.669 2.114 2.93 3.857 3.147l.895.077v.803c0 .478-.401.818-1.033.818-.65 0-1.035-.31-1.05-.911h-2.423c0 1.636 1.08 2.777 3.456 2.777 2.3 0 3.426-1.033 3.426-2.947v-6.186h-2.376zM488.87 197.275v2.02h1.125v1.82l2.515.68v-2.5h1.65v-2.02h-1.65v-4.104c0-.755.077-1.002.71-1.002.293 0 .616.015.878.046v-1.79a21.511 21.511 0 0 0-1.928-.077c-1.48 0-2.175.88-2.175 1.99v4.937zM495.947 199.295h2.499v-8.947h-2.499zm-.17 3.95h2.823v-2.453h-2.823zM503.766 197.537c-1.033 0-1.187-.648-1.187-2.715 0-2.067.154-2.715 1.187-2.715 1.034 0 1.188.648 1.188 2.715 0 2.067-.154 2.715-1.188 2.715m3.518-3.672c0-2.53-1.312-3.702-3.518-3.702-2.252 0-3.548 1.172-3.548 3.702v1.913c0 2.53 1.296 3.702 3.548 3.702 2.206 0 3.518-1.172 3.518-3.702zM511.213 195.856v-5.507h-2.391v8.947h2.314v-1.033a2.09 2.09 0 0 0 1.944 1.218c1.99 0 2.746-1.157 2.746-2.746v-6.387h-2.391v5.507c0 .973-.201 1.667-1.111 1.667-.91 0-1.111-.694-1.111-1.666M526.526 194.282a9.34 9.34 0 0 1-1.357-.185c-.618-.14-.942-.54-.942-1.126 0-.648.433-.941.957-.941 1.018 0 1.342.71 1.342 1.666zm0-3.008c-.354-.694-1.095-1.111-2.082-1.111-1.559 0-2.669 1.018-2.669 2.607 0 2.669 2.113 2.93 3.856 3.147l.895.077v.803c0 .478-.4.818-1.033.818-.649 0-1.034-.31-1.049-.911h-2.423c0 1.636 1.08 2.777 3.456 2.777 2.3 0 3.425-1.033 3.425-2.947v-6.186h-2.376zM533.14 195.856v-5.507h-2.39v8.947h2.314v-1.033a2.09 2.09 0 0 0 1.944 1.218c1.99 0 2.746-1.157 2.746-2.746v-6.387h-2.391v5.507c0 .973-.201 1.667-1.111 1.667-.91 0-1.111-.694-1.111-1.666M542.965 192.23c.956 0 1.172.664 1.172 2.607 0 1.944-.216 2.607-1.172 2.607-.957 0-1.173-.663-1.173-2.607 0-1.943.216-2.607 1.173-2.607m1.249-1.882v1.065c-.231-.633-.91-1.25-1.96-1.25-2.421 0-2.961 1.682-2.961 4.196v1.08c0 2.515.879 4.041 3.024 4.041.878 0 1.635-.539 1.82-1.095v4.86h2.406v-12.897zM555.5 192.338h1.296c1.296 0 1.975.462 1.975 1.743 0 1.234-.648 1.774-2.006 1.774H555.5Zm1.219 5.553c1.095 0 1.759.386 1.759 1.666 0 1.173-.71 1.45-1.775 1.45H555.5v-3.116zm-3.625-7.543v12.588h4.319c2.005 0 3.518-1.126 3.518-3.055 0-1.403-.494-2.545-1.975-2.96v-.032c1.512-.324 2.236-1.589 2.236-3.039 0-2.16-1.373-3.502-3.502-3.502zM567.267 194.282a9.34 9.34 0 0 1-1.357-.185c-.618-.14-.942-.54-.942-1.126 0-.648.433-.941.957-.941 1.018 0 1.342.71 1.342 1.666zm0-3.008c-.354-.694-1.095-1.111-2.082-1.111-1.56 0-2.67 1.018-2.67 2.607 0 2.669 2.114 2.93 3.857 3.147l.895.077v.803c0 .478-.401.818-1.033.818-.65 0-1.034-.31-1.05-.911h-2.422c0 1.636 1.08 2.777 3.456 2.777 2.299 0 3.425-1.033 3.425-2.947v-6.186h-2.376zM571.645 203.245h2.499v-12.896h-2.499zM580.527 194.282a9.34 9.34 0 0 1-1.357-.185c-.618-.14-.942-.54-.942-1.126 0-.648.433-.941.957-.941 1.018 0 1.342.71 1.342 1.666zm0-3.008c-.354-.694-1.095-1.111-2.082-1.111-1.559 0-2.669 1.018-2.669 2.607 0 2.669 2.113 2.93 3.856 3.147l.895.077v.803c0 .478-.4.818-1.033.818-.649 0-1.034-.31-1.049-.911h-2.423c0 1.636 1.08 2.777 3.456 2.777 2.3 0 3.425-1.033 3.425-2.947v-6.186h-2.376zM587.142 195.856v-5.507h-2.391v8.947h2.314v-1.033a2.09 2.09 0 0 0 1.944 1.218c1.99 0 2.746-1.157 2.746-2.746v-6.387h-2.391v5.507c0 .973-.201 1.667-1.111 1.667-.91 0-1.111-.694-1.111-1.666M596.903 199.48c2.268 0 3.44-1.264 3.44-2.976h-2.453c0 .602-.216 1.034-.97 1.034-.957 0-1.173-.557-1.173-2.717 0-2.159.216-2.715 1.172-2.715.755 0 .971.478.971 1.126h2.453c0-1.758-1.172-3.069-3.44-3.069-2.622 0-3.609 1.42-3.609 4.658 0 3.24.987 4.66 3.61 4.66M606.356 195.871c0 1.08-.277 1.666-1.234 1.666-.94 0-1.219-.586-1.219-1.666zm-2.483-1.82v-.463c0-.942.231-1.48 1.264-1.48.926 0 1.22.538 1.22 1.063h2.328c0-1.913-1.48-3.008-3.532-3.008-2.237 0-3.656 1.172-3.656 3.594v1.975c0 2.391 1.326 3.748 3.594 3.748s3.625-1.357 3.625-3.748v-1.68zM613.62 192.23c.955 0 1.171.664 1.171 2.607 0 1.944-.216 2.607-1.172 2.607-.957 0-1.173-.663-1.173-2.607 0-1.943.216-2.607 1.173-2.607m1.25-1.882v1.065c-.232-.633-.91-1.25-1.96-1.25-2.422 0-2.962 1.682-2.962 4.196v1.08c0 2.515.88 4.041 3.024 4.041.878 0 1.635-.539 1.82-1.095v4.86h2.406v-12.897zM626.911 192.37c1.944 0 2.67.647 2.67 4.272s-.726 4.273-2.67 4.273h-.71v-8.546zm-3.162-2.022v12.588h3.671c3.256 0 4.643-1.65 4.643-6.294 0-4.643-1.387-6.294-4.643-6.294zM638.43 195.871c0 1.08-.276 1.666-1.233 1.666-.941 0-1.22-.586-1.22-1.666zm-2.482-1.82v-.463c0-.942.23-1.48 1.264-1.48.926 0 1.219.538 1.219 1.063h2.329c0-1.913-1.48-3.008-3.532-3.008-2.237 0-3.656 1.172-3.656 3.594v1.975c0 2.391 1.326 3.748 3.594 3.748s3.625-1.357 3.625-3.748v-1.68zM645.4 193.727l1.526 5.569h2.608l-2.978-8.947h-2.267l-3.008 8.947h2.53zM654.96 195.871c0 1.08-.276 1.666-1.233 1.666-.941 0-1.22-.586-1.22-1.666zm-2.482-1.82v-.463c0-.942.23-1.48 1.264-1.48.926 0 1.219.538 1.219 1.063h2.329c0-1.913-1.48-3.008-3.532-3.008-2.237 0-3.656 1.172-3.656 3.594v1.975c0 2.391 1.326 3.748 3.594 3.748s3.625-1.357 3.625-3.748v-1.68zM659.015 203.245h2.499v-12.896h-2.499zM666.757 197.537c-1.033 0-1.187-.648-1.187-2.715 0-2.067.154-2.715 1.187-2.715 1.034 0 1.188.648 1.188 2.715 0 2.067-.154 2.715-1.188 2.715m3.518-3.672c0-2.53-1.312-3.702-3.518-3.702-2.252 0-3.548 1.172-3.548 3.702v1.913c0 2.53 1.296 3.702 3.548 3.702 2.206 0 3.518-1.172 3.518-3.702zM675.47 192.2c.956 0 1.172.663 1.172 2.606 0 1.944-.216 2.607-1.172 2.607-.957 0-1.173-.663-1.173-2.607 0-1.943.216-2.607 1.173-2.607m-1.25 7.096v-1.064c.23.633.91 1.25 1.959 1.25 2.422 0 2.962-1.682 2.962-4.197v-1.08c0-2.514-.88-4.04-3.024-4.04-.878 0-1.634.54-1.82 1.094v-4.18h-2.406v12.217zM683.009 190.348h-2.33v8.947h2.284v-.879a1.788 1.788 0 0 0 1.65 1.064c1.11 0 1.635-.616 1.852-1.326.386.864 1.156 1.326 2.314 1.326 1.774 0 2.93-.863 2.93-2.977v-6.155h-2.33v5.708c0 .71-.138 1.435-1.032 1.435-.864 0-1.02-.726-1.02-1.45v-5.693h-2.282v5.723c0 .741-.17 1.42-1.033 1.42-.803 0-1.003-.679-1.003-1.435zM698.106 195.871c0 1.08-.277 1.666-1.234 1.666-.94 0-1.219-.586-1.219-1.666zm-2.483-1.82v-.463c0-.942.231-1.48 1.264-1.48.926 0 1.22.538 1.22 1.063h2.328c0-1.913-1.48-3.008-3.532-3.008-2.237 0-3.656 1.172-3.656 3.594v1.975c0 2.391 1.326 3.748 3.594 3.748s3.625-1.357 3.625-3.748v-1.68zM704.396 195.856v-5.507h-2.39v8.947h2.314v-1.033a2.09 2.09 0 0 0 1.943 1.218c1.99 0 2.746-1.157 2.746-2.746v-6.387h-2.39v5.507c0 .973-.202 1.667-1.112 1.667-.91 0-1.11-.694-1.11-1.666M710.179 197.275v2.02h1.126v1.82l2.515.68v-2.5h1.65v-2.02h-1.65v-4.104c0-.755.077-1.002.709-1.002.294 0 .617.015.879.046v-1.79a21.511 21.511 0 0 0-1.928-.077c-1.481 0-2.175.88-2.175 1.99v4.937z" style="fill:#7b7979;fill-opacity:1;fill-rule:nonzero;stroke:none" transform="matrix(1.33333 0 0 -1.33333 -213.389 459.048)"/><path d="M396.822 306.185h-3.407v14.38h-2.982v-13.099h-3.408v26.263h3.408v-9.608h2.982v10.25h3.407zm-11.318 6.534c-.852-.128-2.769-.417-6.48-.449l-4.747-.032v18.865h9.554v-3.49h-6.025v-11.884h2.678c1.916.032 4.138.257 5.02.385zM425.397 310.733c0 1.28-2.646 1.922-6.48 1.922-3.925 0-6.51-.545-6.51-1.858 0-1.25 2.554-2.114 6.48-2.114 3.864 0 6.51.769 6.51 2.05m4.321-.096c0-2.883-3.864-4.836-10.832-4.836-6.937 0-10.8 2.08-10.8 4.964 0 2.883 3.743 4.836 10.8 4.836 6.968 0 10.832-2.081 10.832-4.964m2.556 6.309H405.5v3.075h11.38v2.082h-8.033v11.786h20.113v-2.914h-16.461v-1.634h16.369v-2.69h-16.37v-1.633h16.825v-2.915h-8.458v-2.082h11.41zM463.465 317.139h-3.53v5.54h-4.442v3.01h4.443v2.179h-4.443v3.01h4.443v3.492h3.529zm-10.132-3.587c-4.016 0-6.755-.865-6.755-2.402 0-1.473 2.739-2.37 6.755-2.37 3.925 0 6.603.897 6.603 2.402 0 1.505-2.678 2.37-6.603 2.37m-.03 3.043c6.815 0 10.497-2.307 10.497-5.413 0-3.171-3.682-5.413-10.497-5.413-6.785 0-10.467 2.242-10.467 5.413 0 3.106 3.682 5.413 10.467 5.413m3.316 1.953c-2.04-.288-5.994-.672-9.645-.704l-6.207-.033v9.193h9.523v2.818h-9.523v3.203h13.052v-9.128h-9.523v-2.915l4.139.032c2.586.032 6.237.385 8.184.64zM497.79 317.619h-3.529v16.75h3.529zm-.091-11.434h-3.529v6.79h-16.491v3.299h20.02zm-17.221 23.285h-5.142v3.299h14.057v-3.299h-5.172v-.289c0-2.274.973-4.131 2.464-5.445 1.551-1.345 2.555-1.889 4.046-2.402l-2.129-2.882c-1.035.384-1.948.833-3.439 1.953-1.125.866-1.977 1.762-2.799 2.755-.578-1.089-1.491-2.178-2.768-3.235-1.43-1.185-2.769-1.858-3.774-2.37l-2.525 2.786c1.521.673 3.103 1.602 4.838 3.171 1.43 1.313 2.343 3.363 2.343 5.669zM529.378 306.185h-3.621v5.381H508.9v3.266h20.478zm-10.071 22.26c-.456-.897-2.252-2.403-4.138-3.555-2.16-1.314-4.655-1.922-5.6-2.115l-2.068 2.563c1.369.256 3.986 1.153 6.359 2.658 2.13 1.345 3.347 3.3 3.347 5.253v1.185h4.199v-1.185c0-1.954 1.217-3.908 3.347-5.253 2.373-1.505 4.989-2.402 6.358-2.658l-2.068-2.563c-.943.193-3.438.801-5.6 2.115-1.885 1.152-3.68 2.658-4.136 3.555m13.387-11.274h-26.775v3.234h11.5v3.652h3.774v-3.652h11.5zM411.068 295.281h8.617v-51.313h-8.617zm-25.267-10.496H375.11v7.321h30.322v-7.321h-10.95c.259-4.276 1.102-8.552 2.657-11.597 1.814-3.563 5.961-7.904 11.338-11.209l-4.73-5.701c-2.397 1.296-4.924 3.11-7.191 5.183-2.528 2.203-4.73 4.665-6.284 6.738-1.232-1.943-3.435-4.341-5.832-6.608-2.721-2.527-5.702-4.794-7.904-6.09l-5.119 5.637c4.989 3.239 10.043 8.228 12.116 12.374 1.685 3.304 2.202 7.451 2.268 11.273M472.815 282.065h8.164v-7.256h-8.164v-14.385h-8.552v34.857h8.552zm-9.46-35.245c0 3.693-2.915 6.738-6.414 6.738-3.498 0-6.543-3.045-6.543-6.738 0-3.63 2.85-6.673 6.35-6.673 3.499 0 6.608 3.044 6.608 6.673m8.552 0c0-7.646-6.543-13.8-14.966-13.8-8.357 0-14.966 6.153-14.966 13.8 0 7.709 6.609 13.865 14.966 13.865 8.423 0 14.966-6.156 14.966-13.865m-35.051 23.064h10.302v8.293h-10.302zm-8.552 23.389h8.552v-8.163h10.302v8.163h8.552v-30.386h-27.406zM521.215 295.281h8.617v-51.313h-8.617zm-2.916-32.718-4.859-5.637c-2.138 1.231-4.794 3.11-7.192 5.313-2.396 2.138-4.6 4.535-5.895 6.608-1.231-1.943-3.37-4.341-5.702-6.608-2.591-2.397-5.442-4.6-7.839-6.09l-5.248 5.636c5.442 3.694 9.848 8.487 11.662 12.116 1.555 3.11 2.591 8.617 2.591 12.957v5.961h8.876v-5.831c0-4.794 1.296-10.56 2.916-13.8 1.814-3.628 5.766-7.58 10.69-10.625M577.712 279.538v15.679h8.423v-51.701h-8.423v28.247h-4.275v-26.758h-8.164v49.305h8.164v-14.772zm-14.06-11.403v-6.803c-5.247-1.75-11.985-2.008-15.937-2.008l-8.746-.065v32.848h22.157v-7.321h-13.67v-18.4l1.102-.065c3.692-.195 10.689.648 15.095 1.814M639.978 243.968h-8.617v51.313h8.617zm-22.872 36.541c0 3.629-2.98 6.609-6.348 6.609-3.305 0-6.35-2.98-6.35-6.609 0-3.563 3.045-6.608 6.35-6.608 3.368 0 6.348 3.045 6.348 6.608m8.488 0c0-7.645-6.543-13.864-14.836-13.864s-14.773 6.219-14.773 13.864c0 7.645 6.48 13.93 14.773 13.93s14.836-6.285 14.836-13.93m-19.307-22.87-14.318-.065v6.932h9.394c8.746 0 22.482.908 28.572 1.62v-6.803c-2.981-.453-8.747-.906-14.707-1.295V244.94h-8.941zM686.498 254.659h-12.18v6.349h12.18v34.274h8.553V249.8h-8.553zm-26.175-2.462h8.617v-9.071h26.499v-7.191h-35.116zm4.341 24.425c3.305 0 6.22 2.657 6.22 5.896 0 3.369-2.721 5.83-6.22 5.83-3.434 0-6.154-2.461-6.154-5.83 0-3.24 2.915-5.896 6.154-5.896m0 18.854c8.293 0 15.031-5.896 15.031-12.958s-6.738-13.023-15.031-13.023c-8.228 0-14.966 5.96-14.966 13.023 0 7.062 6.738 12.958 14.966 12.958m-4.405-33.95-14.772-.064v6.673h10.82c8.746 0 22.481.907 28.572 1.62v-6.544c-3.175-.453-9.525-.972-15.874-1.361v-7.84h-8.746zM741.637 295.216h8.487v-51.054h-8.487zm-15.097-19.307c0 3.434-2.979 6.35-5.895 6.35-2.916 0-5.896-2.916-5.896-6.35 0-3.368 2.98-6.284 5.896-6.284s5.895 2.916 5.895 6.284m-1.295 14.837h11.467v-6.997h-5.441a11.717 11.717 0 0 0 3.173-8.034c0-5.766-3.628-10.69-9.07-12.504v-3.305c5.767.324 11.209.778 14.448 1.167v-6.803c-5.053-.713-17.882-1.62-26.304-1.685l-11.467-.064v6.932h9.199l5.702.065v3.369c-5.896 1.49-10.043 6.673-10.043 12.828 0 3.045 1.166 5.896 3.045 8.034h-5.701v6.997h12.181v6.349h8.811z" style="fill:#231f20;fill-opacity:1;fill-rule:nonzero;stroke:none" transform="matrix(1.33333 0 0 -1.33333 -213.389 459.048)"/><path d="M217.061 282.891c-.228-.27-50.28-52.215-50.452-52.398-7.641-8.185-10.894-24.539 3.068-35.395 13.963-10.857 33.363-8.004 42.698 9.072l33.634 63.783c4.305 6.604 1.536 12.062-1.808 13.789l-11.437 7.195c-1.751.947-3.342 1.358-4.814 1.358-4.299 0-7.582-3.506-10.889-7.404" style="fill:url(#a);stroke:none" transform="matrix(1.33333 0 0 -1.33333 -213.389 459.048)"/><path d="m268.17 295.992-6.859-7.687c-4.492-4.609-7.991-12.127-2.827-16.902 0 0 40.447-35.588 40.607-35.727 14.087-12.279 36.469-14.181 47.916-2.744 11.392 11.382 5.15 29.383-11.515 38.899l-48.315 27.625c-2.887 1.902-5.448 2.859-7.915 2.859-3.65 0-7.095-2.094-11.092-6.323" style="fill:url(#b);stroke:none" transform="matrix(1.33333 0 0 -1.33333 -213.389 459.048)"/><path d="m286.785 338.623-19.807-9.76c-6.154-3.032-6.055-5.849-4.147-8.373l7.793-8.807c5.36-6.012 11.537-4.944 16.565-2.028l21.795 13.018c10.97 6.552 11.474 13.76 4.32 18.911-2.622 1.889-5.466 2.701-8.561 2.702-5.216 0-11.149-2.308-17.958-5.663" style="fill:url(#c);stroke:none" transform="matrix(1.33333 0 0 -1.33333 -213.389 459.048)"/><path d="M240.661 341.258c-7.052-2.856-12.767-9.095-12.448-14.26.008-.131 1.225-5.83 1.225-5.83.152-2.353 2.685-5.899 7.869-4.251l15.308 5.53c3.502 1.187 7.435 3.268 5.739 8.94 0 0-2.263 5.889-2.31 6.016-1.29 3.426-4.432 5.321-8.56 5.321-2.064 0-4.374-.473-6.823-1.466" style="fill:url(#d);stroke:none" transform="matrix(1.33333 0 0 -1.33333 -213.389 459.048)"/><path d="m226.364 315.6-23.237-2.628c-5.686-.587-11.299-5.137-13.728-11.082-2.54-6.216-.129-11.38 5.794-11.416.149-.001 18.333-.764 18.333-.764 5.625-.249 11.799 2.218 13.63 8.987l2.858 12.336c.677 2.524-.602 4.593-3.143 4.593-.164 0-.333-.008-.507-.026" style="fill:url(#e);stroke:none" transform="matrix(1.33333 0 0 -1.33333 -213.389 459.048)"/></svg>